<svg width="1612" height="740" viewBox="0 0 1612 740" fill="none" xmlns="http://www.w3.org/2000/svg">
<rect width="1612" height="740" fill="#F5F5F5"/>
<path fill-rule="evenodd" clip-rule="evenodd" d="M0 628.106L256.611 381.687L204.807 333.911H308.415L652.973 2V333.911H812L693.935 420.661H652.973V740L322.872 437.005L118.065 628.106H0ZM118.065 610.504H50.5994L269.864 393.002L308.415 426.947L118.065 610.504ZM754.172 352.77H256.611L633.697 699.768V420.661H584.303V575.302L402.386 403.06H693.935L754.172 352.77ZM565.027 420.661H454.19L565.027 528.784V420.661ZM402.386 333.911H339.739L633.697 47.2606V333.911H584.303V167.956L402.386 333.911ZM565.027 206.93L431.3 333.911H565.027V206.93Z" fill="#0894E8"/>
<path d="M1046.72 220.666L1046.72 106H1332V197.425H1135.12V573.673H1046.72V626.418H1305.24V573.673H1199.36V220.666L1215.89 257.312V555.734H1321.06V644H1035V555.734H1121.71V178.085H1310.12V124.494H1067.81V170.728L1046.72 220.666Z" fill="#0894E8" stroke="#0894E8"/>
<path d="M761 2V627.542H827.434V602.094H779.831V58.5911L840.763 116V736H1359L1233 650.892H1133.85H1035.85L935 674H1009H1117H1233L1287.85 711.764H865V102.217L761 2Z" fill="#0894E8" stroke="#0894E8"/>
</svg>
