<?xml version="1.0" standalone="no"?>
<!DOCTYPE svg PUBLIC "-//W3C//DTD SVG 20010904//EN"
 "http://www.w3.org/TR/2001/REC-SVG-20010904/DTD/svg10.dtd">
<svg version="1.0" xmlns="http://www.w3.org/2000/svg"
 width="300.000000pt" height="300.000000pt" viewBox="0 0 300.000000 300.000000"
 preserveAspectRatio="xMidYMid meet">
<metadata>
Created by potrace 1.10, written by Peter Selinger 2001-2011
</metadata>
<g transform="translate(0.000000,300.000000) scale(0.100000,-0.100000)"
fill="#ffffff" stroke="none">
<path d="M722 2635 c-18 -8 -33 -14 -35 -14 -15 2 -61 -28 -100 -65 -44 -42
-81 -105 -93 -159 -12 -51 -5 -153 13 -192 45 -100 111 -162 209 -195 69 -24
113 -25 184 -4 92 27 164 86 208 169 22 43 26 63 27 140 0 135 -43 222 -143
282 -86 53 -199 69 -270 38z m204 -32 c102 -40 176 -134 190 -240 20 -163 -79
-300 -245 -339 -56 -13 -69 -12 -124 2 -34 9 -70 20 -81 26 -36 20 -96 81
-123 127 -25 41 -27 55 -27 141 0 85 3 100 28 145 37 66 85 108 159 139 77 32
140 31 223 -1z"/>
<path d="M768 2499 c-74 -11 -120 -38 -142 -83 -18 -36 -18 -41 -3 -65 9 -14
23 -26 31 -26 24 0 27 -11 11 -41 -8 -16 -15 -55 -15 -86 0 -50 3 -59 28 -78
25 -21 34 -22 117 -15 50 4 105 8 123 9 17 2 44 13 58 27 32 30 31 83 -3 153
-14 26 -20 45 -15 42 10 -6 62 48 62 63 0 18 -48 77 -70 87 -33 15 -123 22
-182 13z m196 -48 c28 -26 35 -74 14 -87 -34 -21 -88 2 -88 37 0 25 -37 33
-108 23 -49 -8 -57 -12 -60 -32 -5 -33 -45 -57 -71 -42 -26 13 -26 26 -1 67
25 42 87 60 201 59 78 -1 90 -4 113 -25z m-144 -59 c0 -4 -9 -8 -20 -9 -11 -1
-18 2 -15 8 7 11 35 12 35 1z m50 -21 c0 -10 11 -23 25 -29 38 -18 78 -86 79
-136 1 -25 -2 -47 -5 -50 -8 -9 -108 -25 -196 -32 -69 -5 -72 -5 -88 20 -32
48 7 196 51 196 8 0 14 10 14 25 0 14 5 25 10 25 6 0 10 -9 10 -19 0 -16 7
-19 40 -18 35 2 40 5 40 25 0 13 4 20 10 17 6 -3 10 -14 10 -24z"/>
<path d="M798 2280 c-38 -29 -41 -56 -11 -80 14 -11 32 -20 39 -20 21 0 54 37
54 60 0 20 -32 60 -49 60 -4 0 -20 -9 -33 -20z m50 -22 c15 -15 -3 -48 -27
-48 -23 0 -35 28 -20 46 14 17 31 18 47 2z"/>
<path d="M1760 2471 c-121 -37 -190 -128 -190 -248 1 -226 273 -335 426 -171
52 55 68 95 68 173 0 52 -6 81 -22 111 -52 101 -185 164 -282 135z m155 -45
c61 -28 87 -56 116 -120 35 -80 12 -182 -58 -248 -117 -112 -324 -56 -369 101
-56 189 133 351 311 267z"/>
<path d="M1835 2329 c-4 -5 -1 -16 5 -24 8 -9 10 -28 6 -50 -6 -32 -5 -35 18
-35 30 0 49 29 44 67 -2 19 -12 30 -35 40 -21 8 -34 9 -38 2z m49 -67 c-9 -33
-21 -27 -16 9 2 17 8 27 13 22 5 -5 6 -18 3 -31z"/>
<path d="M1716 2308 c-9 -12 -16 -29 -16 -38 0 -58 91 -86 110 -34 22 58 3 94
-49 94 -20 0 -35 -8 -45 -22z m82 -34 c4 -26 -21 -48 -47 -39 -45 14 -30 69
18 63 17 -2 27 -10 29 -24z"/>
<path d="M1854 2196 c-3 -7 2 -30 10 -50 15 -37 43 -47 74 -27 24 15 3 62 -34
77 -41 17 -43 17 -50 0z m59 -57 c-8 -8 -14 -6 -22 9 -6 10 -7 22 -4 26 4 4
14 0 22 -9 11 -11 12 -18 4 -26z"/>
<path d="M1717 2189 c-26 -15 -40 -58 -26 -76 18 -21 124 -15 145 8 18 20 7
52 -24 67 -25 12 -74 13 -95 1z m87 -24 c27 -21 10 -36 -48 -42 -38 -5 -46 -3
-46 11 0 42 56 60 94 31z"/>
<path d="M2430 2167 c0 -8 9 -25 19 -39 11 -13 30 -43 43 -66 40 -74 44 -81
66 -109 12 -15 28 -37 36 -48 25 -33 18 2 -10 52 -14 25 -36 60 -48 77 -46 62
-38 60 35 -9 121 -114 193 -179 212 -194 28 -22 37 0 37 88 0 67 4 80 40 147
28 52 36 76 28 78 -19 6 -334 34 -400 36 -44 1 -58 -2 -58 -13z m285 -27 c39
-1 89 -5 112 -7 l43 -6 -31 -56 c-17 -31 -33 -60 -36 -64 -3 -5 -12 -2 -21 6
-13 11 -167 90 -224 115 -5 2 -8 -1 -8 -6 0 -14 211 -132 236 -132 11 0 14
-18 14 -71 l0 -71 -42 38 c-56 49 -113 102 -152 139 -18 17 -55 52 -84 78 -29
26 -52 49 -52 50 0 1 39 -1 88 -5 48 -3 119 -7 157 -8z"/>
<path d="M2903 1888 c-3 -173 -59 -317 -190 -493 -79 -105 -325 -354 -401
-405 -49 -33 -63 -50 -43 -50 24 0 150 106 272 229 248 249 353 423 379 624 9
71 3 187 -9 187 -4 0 -7 -42 -8 -92z"/>
<path d="M2854 1948 c3 -13 6 -45 6 -71 0 -30 4 -46 10 -42 11 7 14 94 4 119
-9 25 -27 19 -20 -6z"/>
<path d="M1200 1879 c-36 -17 -96 -49 -133 -72 -77 -48 -94 -79 -58 -108 12
-10 19 -24 15 -33 -3 -8 3 -22 14 -32 11 -9 18 -23 15 -31 -4 -9 6 -18 26 -26
19 -7 31 -18 31 -29 0 -10 9 -27 20 -38 11 -11 20 -29 20 -41 0 -30 29 -87 55
-107 14 -12 24 -34 29 -65 4 -26 12 -47 17 -47 6 0 8 17 4 44 -6 40 -5 45 14
48 12 2 20 7 19 13 -2 5 -11 8 -21 7 -34 -6 -65 25 -83 85 -10 32 -26 67 -36
79 -24 27 -23 55 2 61 15 4 20 14 20 39 0 22 5 34 14 34 7 0 34 19 60 42 38
33 50 38 57 27 13 -21 11 -27 -11 -34 -27 -9 -26 -29 2 -22 34 9 56 -9 63 -53
8 -47 21 -59 39 -35 12 17 13 17 20 -1 5 -13 1 -24 -13 -35 -11 -9 -22 -35
-26 -63 -4 -26 -18 -63 -31 -82 -27 -40 -31 -95 -9 -117 13 -14 10 -18 -22
-37 -40 -23 -52 -21 -106 22 l-27 22 -36 -36 -36 -36 42 -71 c23 -39 46 -71
50 -71 4 0 20 24 35 53 35 67 47 80 39 41 -3 -17 2 -94 11 -170 9 -76 19 -156
21 -178 2 -21 8 -64 13 -95 6 -31 13 -76 15 -100 3 -25 9 -65 13 -90 4 -25 6
-52 5 -58 -2 -7 4 -13 13 -13 17 0 17 -10 -9 180 -34 240 -46 339 -51 404 -3
39 -8 81 -11 95 -6 26 -6 26 20 -4 14 -16 25 -33 26 -37 1 -20 19 -3 69 63
l54 70 -31 31 c-26 27 -33 29 -46 19 -26 -22 -46 -6 -46 38 0 22 5 43 11 47
16 10 49 85 49 114 0 14 9 33 19 42 24 21 44 137 39 229 -3 55 -8 73 -28 94
-13 14 -31 25 -39 25 -9 0 -25 7 -35 15 -31 23 -85 18 -156 -16z m168 -20 c25
-13 47 -32 53 -46 10 -27 12 -153 3 -177 -8 -21 -44 -21 -44 0 0 9 -11 29 -25
46 -14 16 -25 35 -25 42 0 7 -8 21 -19 30 -17 16 -21 15 -62 -16 -24 -18 -56
-41 -71 -51 -15 -9 -31 -31 -36 -50 -5 -19 -16 -33 -26 -35 -22 -5 -65 44 -66
72 0 11 -7 28 -17 38 -15 17 -15 19 2 38 11 12 64 45 119 75 113 61 146 66
214 34z m52 -600 c9 -16 8 -25 -6 -40 -10 -11 -27 -36 -39 -55 l-22 -36 -16
25 c-8 13 -24 32 -34 42 -12 13 -14 20 -6 22 7 3 31 17 55 33 52 35 54 36 68
9z m-199 -26 c39 -26 40 -26 20 -47 -10 -12 -22 -31 -26 -43 -9 -33 -17 -29
-47 27 -27 48 -27 51 -10 69 22 25 16 25 63 -6z"/>
<path d="M2628 1892 c-31 -35 -38 -63 -38 -149 0 -99 -7 -117 -77 -207 -49
-62 -192 -185 -294 -253 -74 -49 -93 -76 -31 -44 120 62 319 236 384 335 37
58 38 61 38 152 0 96 7 130 34 157 9 9 12 18 7 21 -4 3 -15 -2 -23 -12z"/>
<path d="M265 1791 c-66 -31 -138 -101 -161 -157 -60 -143 -18 -305 101 -396
165 -126 400 -68 492 121 39 78 39 190 1 272 -32 71 -94 133 -161 165 -78 36
-191 34 -272 -5z m266 -18 c59 -27 125 -92 152 -152 33 -71 30 -179 -6 -253
-39 -79 -103 -133 -189 -159 -116 -36 -227 -3 -312 92 -143 159 -75 408 133
486 50 19 164 11 222 -14z"/>
<path d="M356 1705 c-56 -20 -86 -54 -93 -106 -4 -27 -14 -50 -27 -60 -17 -14
-21 -29 -21 -73 0 -63 19 -92 53 -82 19 7 21 14 19 100 -1 86 1 97 26 134 20
31 35 43 61 48 56 10 88 -7 119 -62 25 -44 27 -55 22 -119 -6 -74 3 -102 29
-92 8 3 18 2 21 -3 4 -6 1 -10 -5 -10 -6 0 -10 -8 -8 -17 4 -23 -48 -49 -66
-34 -20 17 -76 9 -87 -11 -7 -13 -4 -21 13 -32 25 -18 64 -21 73 -6 3 6 19 10
34 10 42 0 71 28 71 70 1 163 2 156 -25 181 -14 13 -28 40 -31 60 -14 82 -99
132 -178 104z m-90 -201 c-3 -9 -6 -34 -6 -57 0 -30 -3 -38 -11 -30 -16 16
-20 63 -8 85 12 22 33 24 25 2z m299 -5 c9 -26 -3 -89 -15 -89 -6 0 -10 25
-10 55 0 55 13 73 25 34z m-92 -194 c-4 -15 -36 -12 -41 3 -3 9 3 13 19 10 13
-1 23 -7 22 -13z"/>
<path d="M2658 1795 c-3 -3 1 -24 9 -47 9 -25 12 -58 8 -87 -6 -43 -5 -45 9
-27 20 25 20 86 2 131 -15 36 -19 39 -28 30z"/>
<path d="M1240 1580 c0 -33 4 -60 10 -60 6 0 10 27 10 60 0 33 -4 60 -10 60
-6 0 -10 -27 -10 -60z"/>
<path d="M1297 1627 c-3 -8 -1 -20 4 -28 11 -19 34 3 26 25 -8 20 -23 21 -30
3z"/>
<path d="M1190 1610 c0 -11 7 -20 15 -20 8 0 15 9 15 20 0 11 -7 20 -15 20 -8
0 -15 -9 -15 -20z"/>
<path d="M1290 1470 c-8 -5 -25 -7 -37 -3 -28 7 -31 -13 -3 -22 27 -9 60 3 60
21 0 16 0 17 -20 4z"/>
<path d="M2069 1270 c-8 -5 -60 -18 -115 -30 -153 -32 -395 -27 -465 11 -13 6
-19 6 -19 0 0 -29 146 -61 273 -61 82 1 240 24 297 44 59 21 58 21 69 -16 9
-30 25 -73 90 -248 12 -30 21 -58 21 -62 0 -10 -96 -67 -143 -84 -23 -8 -76
-24 -117 -35 -41 -11 -76 -21 -77 -23 -1 -1 2 -19 7 -41 5 -22 11 -62 15 -88
3 -27 9 -66 14 -87 5 -22 6 -41 3 -45 -3 -3 2 -5 12 -5 12 0 15 6 12 23 -12
56 -38 229 -35 232 2 1 22 5 44 8 106 15 295 107 295 143 0 8 -7 29 -17 47 -9
18 -26 63 -39 102 -20 63 -40 115 -73 198 -11 28 -25 33 -52 17z"/>
<path d="M1021 1200 c-108 -43 -184 -83 -254 -137 -83 -63 -203 -183 -266
-266 l-51 -68 32 -30 c18 -17 71 -60 118 -97 47 -36 101 -81 120 -99 l35 -32
25 32 c14 18 39 48 57 67 l32 35 2 -70 c2 -38 3 -77 5 -85 1 -8 2 -32 3 -52 1
-21 6 -38 12 -38 6 0 8 22 5 63 -3 34 -5 97 -5 140 -1 50 -5 77 -12 77 -13 0
-75 -62 -106 -104 l-21 -30 -69 60 c-39 32 -99 83 -136 113 l-65 53 58 72 c79
98 200 211 290 271 76 51 226 125 255 125 8 0 15 7 15 15 0 8 -1 15 -2 14 -2
0 -37 -13 -77 -29z"/>
<path d="M1207 1014 c-11 -12 -8 -41 6 -52 18 -16 39 1 35 29 -3 23 -27 37
-41 23z"/>
<path d="M1669 896 c-2 -3 -22 -7 -44 -9 -22 -3 -59 -8 -83 -12 l-43 -8 7 -71
c4 -39 11 -73 16 -74 4 -2 31 -19 58 -38 l49 -34 46 56 c27 33 44 63 41 73 -6
19 -20 92 -21 105 0 10 -19 19 -26 12z m15 -79 c8 -44 6 -51 -25 -96 l-33 -48
-26 24 c-14 13 -33 26 -42 29 -11 3 -20 22 -26 57 -4 29 -7 55 -5 60 2 4 19 7
36 8 18 1 43 5 57 9 44 14 54 7 64 -43z"/>
<path d="M1234 785 c-15 -11 -17 -17 -8 -32 15 -25 48 -23 52 3 4 31 -20 47
-44 29z"/>
<path d="M460 618 c-35 -115 -53 -268 -31 -268 4 0 11 26 15 58 4 31 16 99 26
151 23 110 22 101 12 101 -5 0 -15 -19 -22 -42z"/>
<path d="M1274 536 c-9 -24 4 -48 23 -44 12 2 18 12 18 28 0 29 -32 41 -41 16z"/>
<path d="M696 485 c-9 -26 -7 -135 3 -135 14 0 26 129 14 141 -7 7 -12 5 -17
-6z"/>
</g>
</svg>
