<?xml version="1.0" standalone="no"?>
<!DOCTYPE svg PUBLIC "-//W3C//DTD SVG 20010904//EN"
 "http://www.w3.org/TR/2001/REC-SVG-20010904/DTD/svg10.dtd">
<svg version="1.0" xmlns="http://www.w3.org/2000/svg"
 width="435.000000pt" height="507.000000pt" viewBox="0 0 435.000000 507.000000"
 preserveAspectRatio="xMidYMid meet">
<metadata>
Created by potrace 1.16, written by Peter Selinger 2001-2019
</metadata>
<g transform="translate(0.000000,507.000000) scale(0.100000,-0.100000)"
fill="#000000" stroke="none">
<path d="M0 2931 l0 -2131 220 0 220 0 0 110 0 110 -120 0 -120 0 0 1691 0
1690 29 -23 c16 -13 133 -120 260 -238 l231 -214 0 -1963 0 -1963 1811 0
c1186 0 1810 3 1807 10 -1 5 -210 235 -463 510 l-460 500 -1045 0 -1045 0 -53
-105 c-28 -58 -52 -107 -52 -110 0 -3 456 -5 1013 -5 l1012 0 190 -207 c105
-114 198 -217 208 -230 l18 -23 -1320 0 -1321 0 0 1888 0 1887 -500 470 c-276
259 -505 472 -510 473 -7 2 -10 -759 -10 -2127z"/>
</g>
</svg>
