<svg xmlns="http://www.w3.org/2000/svg" viewBox="0 0 16 16" id="Code--Streamline-Font-Awesome" height="16" width="16">
  <desc>
    Code Streamline Icon: https://streamlinehq.com
  </desc>
<!--! Font Awesome Free 6.5.2 by @fontawesome - https://fontawesome.com License - https://fontawesome.com/license/free (Icons: CC BY 4.0, Fonts: SIL OFL 1.1, Code: MIT License) Copyright 2024 Fonticons, Inc.-->
  <path d="M9.783740000000002 1.7569125c-0.4165325 -0.12006 -0.8502175 0.12251000000000001 -0.9702775000000001 0.5390425L5.6772175 13.2728125c-0.1200575 0.4165325 0.12251000000000001 0.850215 0.5390425 0.970275s0.8502175 -0.12251000000000001 0.9702775000000001 -0.5390425l3.136245 -10.976857500000001c0.1200575 -0.4165325 -0.12251000000000001 -0.850215 -0.5390425 -0.970275Zm1.9748525000000001 2.94268c-0.3062725 0.3062725 -0.3062725 0.8036625000000002 0 1.1099375L13.946615000000001 8l-2.1904725 2.1904725c-0.3062725 0.3062725 -0.3062725 0.8036625000000002 0 1.109935s0.8036625000000002 0.306275 1.1099375 0l2.7442150000000005 -2.7442150000000005c0.3062725 -0.3062725 0.3062725 -0.8036625000000002 0 -1.109935L12.86608 4.7020425c-0.306275 -0.306275 -0.8036625000000002 -0.306275 -1.1099375 0Zm-7.514735000000001 0c-0.306275 -0.306275 -0.8036625000000002 -0.306275 -1.1099375 0L0.389705 7.4438075c-0.3062725 0.3062725 -0.3062725 0.8036625000000002 0 1.109935l2.7442150000000005 2.7442150000000005c0.306275 0.306275 0.8036625000000002 0.306275 1.1099375 0s0.3062725 -0.8036625000000002 0 -1.1099375L2.053385 8l2.1904725 -2.1904725c0.3062725 -0.3062725 0.3062725 -0.8036625000000002 0 -1.109935Z" fill="#000000" stroke-width="0.025"></path>
</svg>